
<svg xmlns="http://www.w3.org/2000/svg" viewBox="0 0 512 512" width="512" height="512">
	<path class="s0" d="m512 155.6c-0.1 38.8-17.2 74.1-44.1 99.4-26.3 25.1-62.1 40.5-100.3 40.5h-16.7c-42.1 0-76.2 34.1-76.2 76.2v125.5h-97.3c-11.8 0-21.2-9.6-21.2-21.2v-156.7c0-9.5-5.3-18.9-14.2-22.3-9-3.6-18.4-1-24.2 4.7-0.2 0.3-0.5 0.4-0.7 0.6-12.4 13.3-29.9 21.6-49.4 21.6-40.1 0-71.9-34.7-67.3-75.5 3.6-31.5 29.7-56.7 61.2-59.5 22.1-1.9 42.2 6.7 55.8 21.5 5.3 5.1 13.2 7.9 21.3 6 10.5-2.4 17.6-12.4 17.6-23.2v-156.9c0-11.8 9.5-21.2 21.2-21.2h68.9c12.1 0 23.1 8.8 24 20.9 0.6 7-2 13.4-6.5 17.9-13.4 12.4-21.8 30-21.8 49.7 0 37.4 30.3 67.6 67.7 67.6 37.5 0 67.7-30.2 67.7-67.6 0-19.7-8.3-37.2-21.6-49.5-0.3-0.2-0.4-0.4-0.7-0.6-5.1-5.3-7.6-13.3-5.4-21.5 2.6-10.4 12.9-17.1 23.6-17 38.1 0.5 72.5 16.1 97.5 41 25.5 25.6 41.2 60.7 41.1 99.6z" fill="#146ef5" />
	<path d="m512 357c0 77.4-62.8 140.2-140.2 140.2h-97.1v-125.5c0-42.1 34.1-76.2 76.2-76.2h16.7c38.2 0 74-15.4 100.3-40.5 1 0.9 2 1.9 3 2.9 25.4 25.3 41.1 60.4 41.1 99.1z" fill="#FF7A00" />
</svg>